<?xml version="1.0" encoding="utf-8"?>
<!-- Generator: Adobe Illustrator 22.0.1, SVG Export Plug-In . SVG Version: 6.00 Build 0)  -->
<svg version="1.1" id="图层_1" xmlns="http://www.w3.org/2000/svg" xmlns:xlink="http://www.w3.org/1999/xlink" x="0px" y="0px"
	 viewBox="0 0 64 46.5" style="enable-background:new 0 0 64 46.5;" xml:space="preserve">
<g>
	<path d="M51.4,24.7c-5.4,0-10,4.5-10,10c0,5.4,4.5,10,10,10c5.4,0,10-4.5,10-10C61.4,29.2,56.8,24.7,51.4,24.7z M58,33.5l-7,7
		c-0.4,0.4-0.9,0.6-1.4,0.6s-1-0.3-1.4-0.6L44.7,37c-0.8-0.8-0.8-1.9,0-2.8c0.8-0.8,1.9-0.8,2.8,0l2.1,2.1l5.6-5.6
		c0.8-0.8,1.9-0.8,2.8,0C58.8,31.5,58.8,32.7,58,33.5z"/>
	<path d="M24.2,14.6C22.7,14.2,21,14,19.3,14s-3.2,0.3-4.9,0.6L13.6,19h11.5L24.2,14.6z"/>
	<path d="M12.7,21.8c-0.9,0-1.7,0.8-1.7,1.7c0,0.9,0.8,1.7,1.7,1.7c0.9,0,1.7-0.8,1.7-1.7C14.4,22.6,13.7,21.8,12.7,21.8z"/>
	<circle cx="26.1" cy="23.5" r="1.7"/>
	<path d="M50.5,21.8c0.6,0,1.2,0,1.8,0.1V7.4c0-3.1-2.5-5.6-5.6-5.6H8.1C5,1.8,2.5,4.3,2.5,7.4V34c0,3.1,2.5,5.6,5.6,5.6h31.6
		c-0.9-1.7-1.3-3.5-1.3-5.6C38.3,27.3,43.8,21.8,50.5,21.8z M33.8,13.2h8.9c0.8,0,1.6,0.6,1.6,1.6c0,0.8-0.6,1.6-1.6,1.6h-8.9
		c-0.8,0-1.6-0.6-1.6-1.6C32.4,14,33,13.2,33.8,13.2z M33.8,19.1h7c0.8,0,1.6,0.6,1.6,1.6c0,0.8-0.6,1.6-1.6,1.6h-7
		c-0.8,0-1.6-0.6-1.6-1.6C32.4,19.9,33,19.1,33.8,19.1z M29.5,25.7c0,0.8-0.6,1.4-1.3,1.6c-0.3,1-1,1.7-1.9,1.7h-0.3
		c-1,0-1.8-0.8-1.9-1.7h-9.2c-0.3,1-1,1.7-1.9,1.7h-0.3c-1,0-1.9-0.6-1.9-1.7C10,27,9.5,26.5,9.5,25.7v-3.2c0-1,0.5-1.8,1.3-2.2
		c-0.5-0.3-0.9-0.6-0.9-1.2c0-0.6,0.6-1.3,1.3-1.3H12l0.9-3.5c0.3-0.6,0.6-1,1.2-1.2c3.5-0.9,7.1-0.9,10.6,0c0.6,0.3,1,0.6,1.2,1.2
		l0.9,3.5h1.4c0.6,0,1.3,0.6,1.3,1.3c0,0.6-0.5,1.2-1,1.3c0.6,0.4,1.2,1.2,1.2,2.1V25.7z M34.9,28.2h-1c-0.8,0-1.6-0.6-1.6-1.6
		c0-0.8,0.6-1.6,1.6-1.6h1c0.8,0,1.6,0.6,1.6,1.6C36.3,27.4,35.6,28.2,34.9,28.2z"/>
</g>
</svg>
