<?xml version="1.0" standalone="no"?><!DOCTYPE svg PUBLIC "-//W3C//DTD SVG 1.1//EN" "http://www.w3.org/Graphics/SVG/1.1/DTD/svg11.dtd"><svg class="icon" width="64px" height="64.00px" viewBox="0 0 1024 1024" version="1.1" xmlns="http://www.w3.org/2000/svg"><path d="M136.840361 372.888388h-72.730553v579.007928C64.109808 991.871567 96.65269 1024 136.63025 1024H715.22142v-71.576099H136.840361V372.888388zM452.400911 559.909808h56.423901l-31.11136-53.391152C464.751251 521.299121 455.746516 539.129651 452.400911 559.909808zM401.137416 462.20497a215.717664 215.717664 0 0 1 32.885754-30.606864L401.210146 375.291959l-0.07273 86.913011zM558.838034 469.99522c-10.413168 0-20.471919 1.619698-30.00193 4.373069L600.668491 577.226607h66.063586c-0.489488-60.031567-48.649813-107.231387-107.894043-107.231387z"  /><path d="M850.86621 0H271.79825C231.868022 0 199.180834 32.150368 199.180834 72.078286v723.841011C199.180834 835.847215 231.868022 868.148816 271.79825 868.148816h579.06796C890.794128 868.148816 923.022999 835.847215 923.022999 795.919297V72.078286C923.022999 32.150368 890.794128 0 850.86621 0zM678.278918 634.949267v1.154453h-1.154454v-1.154453H389.665614v1.154453h-1.154453v-1.154453h-15.007892v1.154453h-1.154453v-1.154453H344.831269l0.107364-124.680947H344.641939v-1.154453h0.297849l0.035788-42.714769H344.641939v-1.154453h0.334791l0.072731-84.275085H344.641939v-2.308906h0.408676l0.024244-26.552424H344.641939v-1.154453h0.43292l0.120063-139.297479 135.381574 193.493285c25.539968-10.593263 53.21683-16.558322 81.693727-16.558323C682.004338 388.59126 779.05922 483.715896 777.814719 634.949267H678.278918z"  /></svg>