<?xml version="1.0" standalone="no"?><!DOCTYPE svg PUBLIC "-//W3C//DTD SVG 1.1//EN" "http://www.w3.org/Graphics/SVG/1.1/DTD/svg11.dtd"><svg class="icon" width="64px" height="64.00px" viewBox="0 0 1024 1024" version="1.1" xmlns="http://www.w3.org/2000/svg"><path d="M953.947 940.657l-108.51-108.51c24.589-37.135 39.077-81.552 39.077-129.426 0-129.765-105.197-234.959-234.958-234.959-129.765 0-234.959 105.191-234.959 234.959 0 129.76 105.191 234.959 234.959 234.959 47.872 0 92.291-14.491 129.426-39.078l108.51 108.51c13.502 13.503 35.598 13.503 49.1 0l17.355-17.355c13.503-13.503 13.503-35.598 0.001-49.101zM776.437 763.149c-13.903 29.12-37.335 52.554-66.454 66.454-18.379 8.774-38.705 14.096-60.426 14.096-77.859 0-140.976-63.117-140.976-140.976 0-77.859 63.116-140.976 140.976-140.976 77.858 0 140.976 63.116 140.976 140.976 0 21.723-5.322 42.048-14.096 60.426zM343.015 746.721h-114.917c-19.694 0-35.805-16.112-35.805-35.805 0-19.694 16.112-35.805 35.805-35.805h112.983c2.974-33.676 11.361-65.792 24.292-95.478h-137.277c-19.694 0-35.805-16.112-35.805-35.805 0-19.694 16.112-35.805 35.805-35.805h180.94c35.044-42.993 81.457-76.345 134.657-95.478h-315.597c-19.694 0-35.805-16.112-35.805-35.805s16.112-35.805 35.805-35.805h551.174c19.694 0 35.805 16.112 35.805 35.805s-16.112 35.805-35.805 35.805h-26.992c96.523 34.717 170.698 116.239 195.163 217.197v-514.486c0-59.675-48.825-108.498-108.498-108.498h-670.522c-59.675 0-108.498 48.825-108.498 108.498v774.683c0 59.675 48.825 108.498 108.498 108.498h393.273c-114.469-33.329-201.397-131.271-218.685-251.717zM228.099 173.847h551.174c19.694 0 35.805 16.112 35.805 35.805s-16.112 35.805-35.805 35.805h-551.174c-19.694 0-35.805-16.112-35.805-35.805s16.111-35.805 35.805-35.805z" /></svg>