<?xml version="1.0" standalone="no"?><!DOCTYPE svg PUBLIC "-//W3C//DTD SVG 1.1//EN" "http://www.w3.org/Graphics/SVG/1.1/DTD/svg11.dtd"><svg class="icon" width="64px" height="64.00px" viewBox="0 0 1024 1024" version="1.1" xmlns="http://www.w3.org/2000/svg"><path d="M246.008 474.258h176.795c28.389 0 51.404-23.041 51.404-51.441V246.022c0.032-126.065-102.139-228.241-228.198-228.241-126.032 0-228.23 102.176-228.23 228.241-0.001 126.032 102.17 228.236 228.229 228.236zM422.803 549.754H246.008c-126.032 0-228.23 102.172-228.23 228.241 0 126.037 102.171 228.224 228.23 228.224 126.032 0 228.23-102.165 228.23-228.224V601.196c0-28.396-23.046-51.442-51.435-51.442zM601.203 474.226h176.795c126.026 0 228.224-102.172 228.224-228.23 0-126.039-102.198-228.215-228.224-228.215-126.037 0-228.23 102.176-228.23 228.241v176.795c-0.001 28.394 23.014 51.409 51.435 51.409zM982.534 732.291l0.025-0.025h-21.393c-9.774 0-20.109-7.628-23.052-16.977l-12.231-29.795c-4.597-8.594-2.751-21.306 4.185-28.241l15.131-15.131c6.93-6.955 6.93-18.262 0-25.154l-25.178-25.149a17.774 17.774 0 0 0-25.149 0l-15.174 15.126c-6.892 6.892-19.623 8.787-28.261 4.16l-29.733-12.25c-9.311-2.876-16.982-13.26-16.982-23.052v-21.35c-0.033-9.81-7.978-17.761-17.795-17.795h-35.532c-9.827 0.025-17.786 7.975-17.82 17.795v21.331c0 9.835-7.609 20.195-16.978 23.114l-29.776 12.206c-8.637 4.627-21.31 2.732-28.241-4.16l-15.174-15.126c-6.935-6.936-18.175-6.936-25.111 0l-25.154 25.111a17.77 17.77 0 0 0 0 25.148l15.087 15.132c6.936 6.954 8.826 19.647 4.203 28.284l-12.268 29.795c-2.881 9.35-13.285 16.977-23.052 16.977h-21.33c-9.836 0-17.82 7.99-17.82 17.8V785.6c0.033 9.807 7.988 17.747 17.8 17.757h21.35c9.767 0.063 20.128 7.69 23.028 17.021l12.312 29.776c4.584 8.637 2.732 21.393-4.198 28.26l-15.131 15.131c-6.921 6.964-6.921 18.209 0 25.173l25.173 25.154c6.945 6.911 18.166 6.911 25.111 0l15.192-15.15c6.849-6.892 19.542-8.744 28.156-4.122l29.843 12.256c9.369 2.9 16.978 13.254 16.978 23.046v21.268c0.043 9.815 8.003 17.752 17.82 17.775h35.532c9.807-0.033 17.752-7.969 17.795-17.775v-21.268c0-9.792 7.672-20.147 16.982-23.046l29.795-12.256c8.614-4.641 21.369-2.794 28.26 4.142l15.069 15.131c6.949 6.911 18.179 6.911 25.13 0l25.216-25.154c6.935-6.936 6.935-18.237 0-25.173l-15.169-15.131c-6.892-6.868-8.763-19.623-4.16-28.26l12.231-29.776c2.938-9.33 13.317-16.958 23.071-16.958h21.325c9.754 0 17.757-7.984 17.757-17.801v-35.552c0.062-9.793-7.941-17.777-17.695-17.777z m-157.689 91.261a80.802 80.802 0 0 1-57.146 23.658 80.817 80.817 0 0 1-80.837-80.795c0-44.637 36.186-80.829 80.828-80.829 44.637 0 80.828 36.192 80.828 80.829a80.807 80.807 0 0 1-23.673 57.137z"  /></svg>